<?xml version="1.0" encoding="utf-8"?>
<!-- Generator: Adobe Illustrator 19.2.1, SVG Export Plug-In . SVG Version: 6.00 Build 0)  -->
<svg version="1.1" id="Слой_1" xmlns="http://www.w3.org/2000/svg" xmlns:xlink="http://www.w3.org/1999/xlink" x="0px" y="0px"
	 viewBox="0 0 1189.3 1280" style="enable-background:new 0 0 1189.3 1280;" xml:space="preserve">
<style type="text/css">
	.st0{fill:#3D3343;stroke:#F3A230;stroke-width:12;stroke-miterlimit:10;}
	.st1{fill:#FFFFFF;}
	.st2{fill:#16223C;}
	.st3{fill:#1B9EF3;}
</style>
<circle class="st0" cx="574.8" cy="563.3" r="241.5"/>
<circle class="st1" cx="573" cy="565.1" r="279.9"/>
<path class="st2" d="M655.9,791c-24.7,8.5-51.1,13.2-78.7,13.2c-92.7,0-173.3-52.2-213.8-128.8h-96.3
	c43.6,119.6,154.3,206.8,286.5,216.1l102.2,124.3V791z"/>
<path class="st2" d="M498.5,333.6c24.7-8.5,51.1-13.2,78.7-13.2c92.7,0,173.3,52.2,213.8,128.8h96.2
	C843.7,329.7,733,242.5,600.7,233.1L498.5,108.8V333.6z"/>
<path class="st2" d="M348.5,641c-8.5-24.7-13.2-51.1-13.2-78.7c0-92.7,52.2-173.2,128.8-213.8v-96.2
	C344.6,295.8,257.3,406.5,248,538.7L123.7,641H348.5z"/>
<path class="st3" d="M805.9,483.6c8.5,24.7,13.2,51.1,13.2,78.7c0,92.7-52.2,173.2-128.8,213.8v96.2
	C809.7,828.8,897,718.1,906.4,585.9l124.3-102.2H805.9z"/>
<g>
	<g>
		<path class="st2" d="M342.8,1169.5v-116.2h31.3l16.8,56.4c1.6,5,2.9,10,3.9,14.8c1.1,4.8,1.9,9.5,2.5,14.1c0.9-4.3,2-8.8,3.2-13.3
			c1.2-4.6,2.7-9.7,4.4-15.3l17.1-56.7h30v116.2h-18.7V1072c-1,4.3-2.1,8.6-3.2,12.9c-1.1,4.3-2.4,8.5-3.7,12.8l-21.2,71.8h-16
			l-20.6-71.8c-2.1-7.5-3.7-13-4.6-16.4c-0.9-3.5-1.7-6.5-2.3-9.2v97.5H342.8z"/>
		<path class="st2" d="M487,1111.6c0-18.8,4.3-33.4,12.8-44c8.5-10.5,20.3-15.8,35.4-15.8c15.1,0,26.9,5.3,35.5,15.8
			c8.6,10.5,12.8,25.2,12.8,44c0,18.7-4.3,33.3-12.9,43.9c-8.6,10.6-20.4,15.9-35.4,15.9c-15,0-26.8-5.3-35.4-15.9
			S487,1130.3,487,1111.6z M509.2,1111.6c0,13.2,2.2,23.1,6.6,29.9c4.4,6.8,10.9,10.2,19.4,10.2c8.5,0,15-3.4,19.4-10.2
			c4.4-6.8,6.6-16.8,6.6-29.9c0-13.3-2.2-23.3-6.6-30.2c-4.4-6.9-10.9-10.3-19.4-10.3c-8.5,0-15,3.4-19.4,10.3
			C511.4,1088.3,509.2,1098.4,509.2,1111.6z"/>
		<path class="st2" d="M641.2,1169.5l-34.7-116.2h21.9l26.5,94.8l26.2-94.8h22l-34.7,116.2H641.2z"/>
		<path class="st2" d="M733.7,1169.5v-116.2h75.5v18.9h-53.7v27.5h39.1v18.6h-39.1v31.5h56v19.8H733.7z"/>
	</g>
</g>
<path class="st3" d="M566.5,588c14.2,9.5,27.5,18.3,42.1,28c-15.6,7.7-29.7,14.7-44.4,22c-0.4-1.3-1.2-2.3-1-3
	c3-9.5-1.4-13.2-10.2-16.6c-24.9-9.7-46.4-24.7-63.3-45.7c-37.9-46.8-33-117,11.3-161c42.6-42.4,110.4-47,155.5-9.4
	c35.7,29.8,47.7,68.9,41,114.3c-0.3,2.4-1.3,4.7-2.2,6.9c14.2-70.9-40.8-128.2-99.8-132.1c-58.5-3.8-110,38.7-116.5,96.4
	c-6.1,53.9,32.8,106,86.2,114.6C565.6,598.1,566,593.8,566.5,588z"/>
<path class="st3" d="M605.2,515c-0.3,5-0.6,9.4-0.9,15.4c-14.3-9.5-27.4-18.2-42.2-28c15.4-7.7,29.7-14.8,43.7-21.8
	c0.9,0.9,1.5,1.2,1.5,1.6c-0.2,12.4-0.2,12.3,11.9,17.6c25.2,11.1,47.2,26.5,63.8,48.8c32.2,43.2,29.5,105.3-6.4,148.5
	c-35.4,42.6-94.2,55.5-142.9,31.4c-46.6-23.1-73.3-80.2-60.9-130.5c0.5-1.9,1.2-3.8,2.3-5.8c-6.2,33.1-0.4,63.6,20.1,90.5
	c20.7,27.1,48.4,41.9,82.6,43.2c58.8,2.2,106.6-40.1,113.2-99.3C696.6,575.4,657.8,524.6,605.2,515z"/>
</svg>
