DBRep_DrawableShape

CASCADE Topology V1, (c) Matra-Datavision
Locations 0
Curve2ds 8
1 -1.5707963267948966 0.6928725555753753 1 0 
1 -1.5707963267948966 -0.43896188560976068 1 0 
1 6.2831853071795862 -6.2831853071795862 0 1 
1 0 -6.2831853071795862 0 1 
1 0 -1.5707963267948966 1 0 
1 6.2831853071795862 -6.2831853071795862 0 1 
1 0 -6.2831853071795862 0 1 
1 0 -1.5707963267948966 1 0 
Curves 3
2 0 0 0.63875000000000004 0 0 1 0 -1 0 1 0 -0 0.76941434708484613
2 0 0 0 -2.4492935982947064e-16 -1 0 1 -2.4492935982947064e-16 0 0 0 1 1
2 0 0 1 -2.4492935982947064e-16 -1 0 1 -2.4492935982947064e-16 0 0 0 1 0.84999999999999998
Polygon3D 0
PolygonOnTriangulations 0
Surfaces 2
4 0 0 0 0 0 1 1 0 -0 -0 1 0 1
4 0 0 1 0 0 1 1 0 -0 -0 1 0 0.84999999999999998
Triangulations 0

TShapes 15
Ve
1.0000002136278e-07
0.769414347084857 -1.88452163475104e-16 0.638749999999973
0 0

0101101
*
Ed
 1e-07 1 1 0
1  1 0 1.5707963267949 7.85398163397448
2  1 1 0 1.5707963267949 7.85398163397448
2  2 2 0 1.5707963267949 7.85398163397448
0

0101000
+15 0 -15 0 *
Ve
1e-07
6.12323399573677e-17 -1.49975978266186e-32 -1
0 0

0101101
*
Ed
 1e-07 1 1 0
1  2 0 4.71238898038469 6.97605786275493
3  3 4CN 1 0 4.71238898038469 6.97605786275493
0

0101000
+13 0 -15 0 *
Ed
 1e-07 1 1 1
2  5 1 0 0 6.28318530717959
0

0101000
+13 0 -13 0 *
Wi

0101100
-14 0 +12 0 +11 0 -12 0 *
Fa
0  1e-07 1 0

0111000
+10 0 *
Ve
1e-07
5.20474889637625e-17 -1.27479581526258e-32 0.15
0 0

0101101
*
Ed
 1e-07 1 1 0
1  3 0 4.71238898038469 5.8442234215698
3  6 7CN 2 0 4.71238898038469 5.8442234215698
0

0101000
+8 0 -15 0 *
Ed
 1e-07 1 1 1
2  8 2 0 0 6.28318530717959
0

0101000
+8 0 -8 0 *
Wi

0101100
-14 0 +7 0 +6 0 -7 0 *
Fa
0  1e-07 2 0

0111000
+5 0 *
Sh

0101100
+9 0 -4 0 *
So

0100000
+3 0 *
Co

1100000
+2 0 *

+1 0 