DBRep_DrawableShape

CASCADE Topology V1, (c) Matra-Datavision
Locations 5
1
              1               0               0               0 
              0               1               0               0 
              0               0               1               0 
1
              1               0               0               1 
              0               1               0               0 
              0               0               1               0 
2  1 1 2 -1 0
2  2 -1 0
2  1 -1 0
Curve2ds 3
2 0 -6.5848742593233565e-17 1 0 -0 1 0.85000000000000009
2 1 -8.7375952453992489e-17 1 0 -0 1 0.85000000000000009
2 6.4098756212785473e-17 -8.7375952453992489e-17 1 0 -0 1 1
Curves 2
2 0 0 0 0 0 1 1 0 -0 -0 1 0 0.84999999999999998
2 0 0 0 0 0 1 1 0 -0 -0 1 0 1
Polygon3D 0
PolygonOnTriangulations 0
Surfaces 2
1 -6.4098756212785473e-17 8.7375952453992489e-17 0 0 0 1 1 0 -0 -0 1 0 
1 -2.5136767142268811e-17 6.5848742593233565e-17 0 0 0 1 1 0 -0 -0 1 0 
Triangulations 0

TShapes 8
Ve
1.00000020882894e-07
0.638749999999974 0.769414347084857 0
0 0

0101101
*
Ve
1.00000020953309e-07
0.638749999999974 -0.769414347084857 0
0 0

0101101
*
Ed
 1e-07 1 1 0
1  1 0 2.00975821240468 4.27342709477491
2  1 2 0 2.00975821240468 4.27342709477491
2  2 1 3 2.00975821240468 4.27342709477491
0

0101000
+8 4 -7 4 *
Ed
 1e-07 1 1 0
1  2 0 0.877923771219549 5.40526153596004
2  3 1 0 0.877923771219549 5.40526153596004
0

0101000
+8 5 -7 5 *
Wi

0101100
-6 2 +5 1 *
Fa
0  1e-07 1 1

0111000
+4 0 *
Sh

0101000
+3 0 *
Co

1100000
+2 0 *

+1 0 